<svg
	xmlns="http://www.w3.org/2000/svg"
	xmlns:xlink="http://www.w3.org/1999/xlink"
	x="0px"
	y="0px"
	viewBox="0 0 1920 1080"
>
	<style type="text/css">
		.st0{fill:none;}
		.st1{opacity:0.3;fill:#FFFFFF;}
	</style>
	<g>
		<rect class="st0" width="1920" height="1080"/>
		<circle class="st1" cx="427.5" cy="321.5" r="1.5"/>
		<circle class="st1" cx="702.5" cy="322.5" r="2.5"/>
		<circle class="st1" cx="201.5" cy="501.5" r="1.5"/>
		<circle class="st1" cx="869.9" cy="357.5" r="1.5"/>
		<circle class="st1" cx="928.9" cy="626" r="2.5"/>
		<circle class="st1" cx="644.9" cy="176.2" r="1.5"/>
		<circle class="st1" cx="1242" cy="179.4" r="1.5"/>
		<circle class="st1" cx="1468.3" cy="335.7" r="2.5"/>
		<circle class="st1" cx="953.8" cy="200.2" r="1.5"/>
		<circle class="st1" cx="1586.6" cy="459.1" r="1.5"/>
		<circle class="st1" cx="1483.5" cy="714" r="2.5"/>
		<circle class="st1" cx="1503.4" cy="182.4" r="1.5"/>
		<circle class="st1" cx="1572.6" cy="663.7" r="1.5"/>
		<circle class="st1" cx="1297.6" cy="662.7" r="2.5"/>
		<circle class="st1" cx="1798.6" cy="483.7" r="1.5"/>
		<circle class="st1" cx="1130.2" cy="627.8" r="1.5"/>
		<circle class="st1" cx="1071.2" cy="359.2" r="2.5"/>
		<circle class="st1" cx="1355.2" cy="809" r="1.5"/>
		<circle class="st1" cx="758.1" cy="805.8" r="1.5"/>
		<circle class="st1" cx="531.8" cy="649.6" r="2.5"/>
		<circle class="st1" cx="1046.3" cy="785.1" r="1.5"/>
		<circle class="st1" cx="413.5" cy="526.1" r="1.5"/>
		<circle class="st1" cx="516.6" cy="271.2" r="2.5"/>
		<circle class="st1" cx="496.7" cy="802.8" r="1.5"/>
		<circle class="st1" cx="856.8" cy="254" r="1.1"/>
		<circle class="st1" cx="1035.4" cy="346.5" r="1.8"/>
		<circle class="st1" cx="649.7" cy="295.5" r="1.1"/>
		<circle class="st1" cx="1132.5" cy="425.2" r="1.1"/>
		<circle class="st1" cx="1081.2" cy="619.6" r="1.8"/>
		<circle class="st1" cx="1046.8" cy="232.1" r="1.1"/>
		<circle class="st1" cx="1434.1" cy="433.7" r="1.1"/>
		<circle class="st1" cx="1529.1" cy="611" r="1.8"/>
		<circle class="st1" cx="1239.7" cy="350.9" r="1.1"/>
		<circle class="st1" cx="1564.8" cy="730.8" r="1.1"/>
		<circle class="st1" cx="1412.5" cy="862.2" r="1.8"/>
		<circle class="st1" cx="1603.1" cy="523.1" r="1.1"/>
		<circle class="st1" cx="1487.3" cy="859.3" r="1.1"/>
		<circle class="st1" cx="1308.7" cy="766.7" r="1.8"/>
		<circle class="st1" cx="1694.4" cy="817.7" r="1.1"/>
		<circle class="st1" cx="1211.5" cy="688" r="1.1"/>
		<circle class="st1" cx="1262.9" cy="493.6" r="1.8"/>
		<circle class="st1" cx="1297.3" cy="881.1" r="1.1"/>
		<circle class="st1" cx="910" cy="679.5" r="1.1"/>
		<circle class="st1" cx="815" cy="502.2" r="1.8"/>
		<circle class="st1" cx="1104.4" cy="762.3" r="1.1"/>
		<circle class="st1" cx="779.3" cy="382.4" r="1.1"/>
		<circle class="st1" cx="931.6" cy="251" r="1.8"/>
		<circle class="st1" cx="740.9" cy="590.2" r="1.1"/>
		<circle class="st1" cx="843.6" cy="856.4" r="1.5"/>
		<circle class="st1" cx="568.6" cy="855.4" r="2.5"/>
		<circle class="st1" cx="1069.6" cy="676.4" r="1.5"/>
		<circle class="st1" cx="401.2" cy="820.5" r="1.5"/>
		<circle class="st1" cx="342.2" cy="551.9" r="2.5"/>
		<circle class="st1" cx="626.2" cy="1001.7" r="1.5"/>
		<circle class="st1" cx="29.1" cy="998.5" r="1.5"/>
		<circle class="st1" cx="1642.8" cy="516.3" r="2.5"/>
		<circle class="st1" cx="317.3" cy="977.7" r="1.5"/>
		<circle class="st1" cx="1524.5" cy="392.8" r="1.5"/>
		<circle class="st1" cx="1627.6" cy="137.9" r="2.5"/>
		<circle class="st1" cx="1607.7" cy="669.5" r="1.5"/>
		<circle class="st1" cx="1538.5" cy="188.2" r="1.5"/>
		<circle class="st1" cx="1813.5" cy="189.2" r="2.5"/>
		<circle class="st1" cx="1312.5" cy="368.2" r="1.5"/>
		<circle class="st1" cx="140.9" cy="550.1" r="1.5"/>
		<circle class="st1" cx="199.9" cy="818.7" r="2.5"/>
		<circle class="st1" cx="1755.9" cy="42.9" r="1.5"/>
		<circle class="st1" cx="513" cy="372.1" r="1.5"/>
		<circle class="st1" cx="739.3" cy="528.3" r="2.5"/>
		<circle class="st1" cx="224.8" cy="392.8" r="1.5"/>
		<circle class="st1" cx="857.6" cy="651.8" r="1.5"/>
		<circle class="st1" cx="754.5" cy="906.7" r="2.5"/>
		<circle class="st1" cx="774.4" cy="375.1" r="1.5"/>
		<circle class="st1" cx="414.3" cy="923.9" r="1.1"/>
		<circle class="st1" cx="235.7" cy="831.4" r="1.8"/>
		<circle class="st1" cx="621.4" cy="882.4" r="1.1"/>
		<circle class="st1" cx="138.5" cy="752.7" r="1.1"/>
		<circle class="st1" cx="189.9" cy="558.3" r="1.8"/>
		<circle class="st1" cx="224.3" cy="945.8" r="1.1"/>
		<circle class="st1" cx="1677" cy="418.2" r="1.1"/>
		<circle class="st1" cx="1582" cy="240.9" r="1.8"/>
		<circle class="st1" cx="31.4" cy="827" r="1.1"/>
		<circle class="st1" cx="1546.3" cy="121.1" r="1.1"/>
		<circle class="st1" cx="1507.9" cy="328.8" r="1.1"/>
		<circle class="st1" cx="1802.4" cy="85.2" r="1.8"/>
		<circle class="st1" cx="1416.7" cy="34.2" r="1.1"/>
		<circle class="st1" cx="59.5" cy="489.9" r="1.1"/>
		<circle class="st1" cx="8.2" cy="684.3" r="1.8"/>
		<circle class="st1" cx="361.1" cy="498.4" r="1.1"/>
		<circle class="st1" cx="456.1" cy="675.7" r="1.8"/>
		<circle class="st1" cx="166.7" cy="415.6" r="1.1"/>
		<circle class="st1" cx="491.8" cy="795.5" r="1.1"/>
		<circle class="st1" cx="339.5" cy="926.9" r="1.8"/>
		<circle class="st1" cx="530.1" cy="587.8" r="1.1"/>
	</g>
</svg>
